Coordinates
version=1
nRows=9
nColumns=42
inDegrees=yes

Units are S.I. units (second, meters, Newtons, ...)
If the header above contains a line with 'inDegrees', this indicates whether rotational values are in degrees (yes) or radians (no).

endheader
time	pelvis_tilt	pelvis_list	pelvis_rotation	pelvis_tx	pelvis_ty	pelvis_tz	hip_flexion_r	hip_adduction_r	hip_rotation_r	knee_angle_r	knee_adduction_r	knee_angle_r_beta	ankle_angle_r	subtalar_angle_r	mtp_angle_r	hip_flexion_l	hip_adduction_l	hip_rotation_l	knee_angle_l	knee_adduction_l	knee_angle_l_beta	ankle_angle_l	subtalar_angle_l	mtp_angle_l	lumbar_extension	lumbar_bending	lumbar_rotation	arm_flex_r	arm_add_r	arm_rot_r	elbow_flex_r	pro_sup_r	wrist_flex_r	wrist_dev_r	arm_flex_l	arm_add_l	arm_rot_l	elbow_flex_l	pro_sup_l	wrist_flex_l	wrist_dev_l
      2.43000000	      8.56563524	      2.80894715	      3.52277270	      0.61970143	      0.92415624	     -0.28532710	     14.31693346	     -4.40811269	     -9.42393943	     70.22258943	     -3.46923718	      1.22561539	      7.87749469	    -11.29306488	     -7.50961165	      9.92206312	      6.92446034	    -28.67324779	     31.41707439	    -11.66766664	      0.54833139	     22.18648940	     23.58544856	     -7.50961165	    -40.65203200	     -6.57747215	     -3.14981180	      4.11590806	     -8.89007632	     12.77259764	     38.91160641	     90.00000001	      0.00000000	      0.00000000	     -3.33343697	    -14.45178556	     16.99392181	     51.28948470	     90.00000001	      0.00000000	      0.00000000
      2.44000000	      8.33565909	      2.87088461	      3.48703120	      0.62395463	      0.92373691	     -0.28554816	     15.88744963	     -4.42890153	     -9.31335740	     69.95132256	     -3.89287051	      1.22088089	      8.67270380	    -10.86863818	     -7.50922455	      9.91026960	      6.83921413	    -30.12900368	     31.28779639	    -12.17464303	      0.54607506	     22.55893121	     25.87750503	     -7.50922455	    -40.46547545	     -6.60403213	     -3.19008041	      4.06672306	     -8.80216662	     12.71330215	     39.00913419	     90.00000001	      0.00000000	      0.00000000	     -3.30420780	    -14.52757359	     17.12867233	     51.21365805	     90.00000001	      0.00000000	      0.00000000
      2.45000000	      8.26423366	      2.90357822	      3.66695859	      0.62796160	      0.92398103	     -0.28614844	     17.08804027	     -4.47505059	     -9.18920250	     69.30805473	     -3.99891121	      1.20965375	      8.89174904	    -10.67279450	     -7.50912445	      9.60679194	      6.84715711	    -30.12651995	     31.22103068	    -12.02840717	      0.54490978	     22.55218678	     25.66727896	     -7.50912445	    -40.53776474	     -6.45210266	     -3.41232217	      4.12422415	     -8.74376151	     12.69937838	     39.17671780	     90.00000001	      0.00000000	      0.00000000	     -3.25215216	    -14.57854955	     17.11388872	     51.24778164	     90.00000001	      0.00000000	      0.00000000
      2.46000000	      8.26373119	      3.00277831	      3.47634999	      0.63274403	      0.92416958	     -0.28597261	     18.22405019	     -4.32973122	     -9.14307376	     68.55469519	     -4.68604001	      1.19650515	      9.99955171	    -10.80316495	     -7.50877762	      9.06364822	      6.90577177	    -31.61165723	     30.55400985	    -12.58975128	      0.53326807	     23.05091091	     28.16970072	     -7.50877762	    -40.53438522	     -6.59234227	     -3.34294216	      4.03841186	     -8.64029767	     12.65637899	     39.18052262	     90.00000001	      0.00000000	      0.00000000	     -3.27256036	    -14.64472384	     17.23044363	     51.02686805	     90.00000001	      0.00000000	      0.00000000
      2.47000000	      8.17822840	      3.07294803	      3.50096020	      0.63705097	      0.92429263	     -0.28622206	     19.37454550	     -4.26385387	     -9.00592841	     67.63185557	     -4.99370795	      1.18039856	     10.50064067	    -10.91042658	     -7.50866705	      8.68923897	      7.07157977	    -31.77119811	     30.21108155	    -12.67307214	      0.52728284	     23.22835511	     28.15629823	     -7.50866705	    -40.51332164	     -6.57207709	     -3.43892423	      4.03178309	     -8.57243571	     12.66816981	     39.22979542	     90.00000001	      0.00000000	      0.00000000	     -3.30562941	    -14.67946352	     17.24685652	     50.95405511	     90.00000001	      0.00000000	      0.00000000
      2.48000000	      8.24706078	      3.22654819	      3.51720273	      0.64166896	      0.92477326	     -0.28656055	     20.23397031	     -4.34464782	     -8.91147361	     66.52990774	     -5.23311149	      1.16116594	     10.97973058	    -11.08055626	     -7.50849779	      7.99521141	      7.29946230	    -32.14489143	     29.62349269	    -12.70983032	      0.51702748	     23.42528467	     28.95119046	     -7.50849779	    -40.64203509	     -6.60062970	     -3.57351631	      3.98891654	     -8.51012307	     12.62219004	     39.27257390	     90.00000001	      0.00000000	      0.00000000	     -3.31427367	    -14.72461132	     17.28763715	     50.79666424	     90.00000001	      0.00000000	      0.00000000
      2.49000000	      8.10391193	      3.32842856	      3.62722623	      0.64596814	      0.92470078	     -0.28690573	     21.34345639	     -4.51410920	     -8.82228339	     65.41062452	     -5.17873679	      1.14163076	     11.05535603	    -10.84862787	     -7.50840358	      7.74346861	      7.43063408	    -32.03407904	     29.54076555	    -12.57200776	      0.51558362	     23.40248968	     28.69335447	     -7.50840358	    -40.57357415	     -6.57350212	     -3.73790177	      3.96399608	     -8.46756736	     12.59493392	     39.44814880	     90.00000001	      0.00000000	      0.00000000	     -3.44690024	    -14.80632958	     17.27486558	     50.81764349	     90.00000001	      0.00000000	      0.00000000
      2.50000000	      8.46818014	      3.43556978	      3.57218921	      0.65107143	      0.92589369	     -0.28704690	     21.59013970	     -4.41841375	     -8.69879772	     63.78562900	     -5.40102755	      1.11326924	     11.45502617	    -11.11748513	     -7.50819011	      6.49181383	      7.76898022	    -32.35920679	     28.40313646	    -12.78763751	      0.49572825	     23.65668786	     29.99804465	     -7.50819011	    -40.96943048	     -6.57628690	     -3.77942018	      3.92547499	     -8.39499286	     12.47688674	     39.45995083	     90.00000001	      0.00000000	      0.00000000	     -3.50283072	    -14.84340300	     17.31337494	     50.62546664	     90.00000001	      0.00000000	      0.00000000
      2.51000000	      8.39349454	      3.55298081	      3.60300946	      0.65560261	      0.92591903	     -0.28725849	     22.47019619	     -4.44481666	     -8.56470568	     62.33816566	     -5.49290242	      1.08800624	     11.64565195	    -11.06187660	     -7.50807885	      6.05567835	      8.07987236	    -32.34066964	     27.95493724	    -12.91837292	      0.48790570	     23.84152930	     29.93991026	     -7.50807885	    -40.93761137	     -6.58632124	     -3.91376247	      3.90109701	     -8.33922572	     12.45333718	     39.53010703	     90.00000001	      0.00000000	      0.00000000	     -3.64112613	    -14.91128717	     17.31997645	     50.54814800	     90.00000001	      0.00000000	      0.00000000
